<?xml version="1.0" ?>
<svg xmlns="http://www.w3.org/2000/svg" width="800" height="600" viewBox="0 0 800 600">
  <path d="M669.71,311.61 L650.16,292.06 L631.28,299.88 L631.28,426.71 L642.34,437.77 L738.94,437.77 L750.00,426.71 L750.00,299.88 L738.94,288.82 L642.34,288.82 L634.52,307.70 L654.07,327.25" stroke="#000000" stroke-width="1.0" stroke-linecap="round" stroke-linejoin="round" fill="none"/>
  <line x1="50.00" y1="173.29" x2="50.00" y2="222.34" stroke="#000000" stroke-width="1.0" stroke-linecap="round"/>
  <line x1="61.06" y1="233.40" x2="155.98" y2="233.40" stroke="#000000" stroke-width="1.0" stroke-linecap="round"/>
  <path d="M68.88,165.47 L65.29,163.07 L61.06,162.23 L56.83,163.07 L53.24,165.47 L50.84,169.06 L50.00,173.29 L50.84,177.52 L53.24,181.11" stroke="#000000" stroke-width="1.0" stroke-linecap="round" stroke-linejoin="round" fill="none"/>
  <path d="M155.98,233.40 L158.14,233.19 L160.22,232.56 L162.13,231.53 L163.81,230.16 L165.18,228.48 L166.20,226.57 L166.83,224.50 L167.04,222.34" stroke="#000000" stroke-width="1.0" stroke-linecap="round" stroke-linejoin="round" fill="none"/>
  <path d="M50.00,222.34 L50.21,224.50 L50.84,226.57 L51.86,228.48 L53.24,230.16 L54.92,231.53 L56.83,232.56 L58.90,233.19 L61.06,233.40" stroke="#000000" stroke-width="1.0" stroke-linecap="round" stroke-linejoin="round" fill="none"/>
  <line x1="68.88" y1="165.47" x2="86.59" y2="183.17" stroke="#000000" stroke-width="1.0" stroke-linecap="round"/>
  <path d="M167.04,173.29 L166.83,171.13 L166.20,169.06 L165.18,167.14 L163.81,165.47 L162.13,164.09 L160.22,163.07 L158.14,162.44 L155.98,162.23" stroke="#000000" stroke-width="1.0" stroke-linecap="round" stroke-linejoin="round" fill="none"/>
  <line x1="167.04" y1="173.29" x2="167.04" y2="222.34" stroke="#000000" stroke-width="1.0" stroke-linecap="round"/>
  <line x1="155.98" y1="162.23" x2="61.06" y2="162.23" stroke="#000000" stroke-width="1.0" stroke-linecap="round"/>
  <line x1="53.24" y1="181.11" x2="70.95" y2="198.82" stroke="#000000" stroke-width="1.0" stroke-linecap="round"/>
</svg>
